<svg width="128" height="39" viewBox="0 0 128 39" fill="none" xmlns="http://www.w3.org/2000/svg">
<path fill-rule="evenodd" clip-rule="evenodd" d="M72.7849 9.17933C73.1453 9.52729 73.3709 9.89449 73.4555 10.2683C76.4173 10.4694 79.2089 11.4938 81.3271 13.1759C83.7009 15.061 85.0345 17.6177 85.0345 20.2837H82.9546C82.9546 18.0558 81.8401 15.9192 79.8564 14.3438C77.8726 12.7685 75.182 11.8835 72.3766 11.8835C69.6867 11.8835 67.3669 12.4912 65.4318 13.9298C65.6018 14.0953 65.7648 14.2646 65.9205 14.4376C67.7503 13.4066 70.0224 12.8378 72.3766 12.8378C75.1412 12.8378 77.7927 13.6223 79.7476 15.0186C81.7025 16.415 82.8008 18.3089 82.8008 20.2837H81.0879C81.0879 18.6334 80.1701 17.0507 78.5364 15.8838C76.9027 14.7169 74.6869 14.0613 72.3766 14.0613C70.3177 14.0613 68.334 14.5819 66.7704 15.521C66.8951 15.7051 67.0125 15.8922 67.1224 16.0819C68.6335 15.1927 70.5612 14.6993 72.5627 14.6993C74.7843 14.6993 76.915 15.3072 78.4859 16.3894C80.0568 17.4716 80.9393 18.9394 80.9393 20.4698H79.5629C79.5629 19.1908 78.8254 17.9643 77.5126 17.0599C76.1998 16.1555 74.4193 15.6475 72.5627 15.6475C70.7062 15.6475 68.9256 16.1555 67.6129 17.0599L67.6127 17.06C67.6635 17.1791 67.7115 17.2991 67.7567 17.4198C69.001 16.6303 70.6546 16.1884 72.3766 16.1884C74.1539 16.1884 75.8584 16.6591 77.1151 17.4969C78.3059 18.2908 79.0022 19.3526 79.072 20.4698H90.619C90.619 21.9739 89.9185 23.463 88.5581 24.8506C87.1978 26.2382 85.2047 27.4968 82.6947 28.5531C80.1847 29.6094 77.2077 30.4425 73.9366 31.004C70.6655 31.5654 67.1656 31.8441 63.6399 31.8237C60.1143 31.8034 56.6333 31.4845 53.399 30.8855C50.1647 30.2865 47.2417 29.4193 44.7995 28.3344C42.3574 27.2495 40.4449 25.9685 39.173 24.5657C37.9012 23.1628 37.2954 21.6662 37.3907 20.1627L42.9656 20.227C42.9843 17.5815 44.3158 15.0476 46.6728 13.1759C48.8807 11.4226 51.8203 10.3838 54.9216 10.2472C55.0098 9.88067 55.2337 9.52074 55.5872 9.17933C56.055 8.72765 56.7405 8.31723 57.6048 7.97153C58.4691 7.62582 59.4951 7.35159 60.6243 7.1645C61.7535 6.9774 62.9638 6.8811 64.1861 6.8811C65.4083 6.8811 66.6186 6.9774 67.7479 7.1645C68.8771 7.35159 69.9031 7.62582 70.7674 7.97153C71.6316 8.31723 72.3172 8.72765 72.7849 9.17933ZM45.0454 20.251L45.1992 20.2528C45.2106 18.2892 46.3076 16.4077 48.2523 15.0186C50.2073 13.6223 52.8587 12.8378 55.6234 12.8378C58.388 12.8378 61.0395 13.6223 62.9944 15.0186C64.9493 16.415 66.0476 18.3089 66.0476 20.2837H64.3347C64.3347 18.6334 63.4169 17.0507 61.7832 15.8838C60.1495 14.7169 57.9338 14.0613 55.6234 14.0613C53.313 14.0613 51.0972 14.7169 49.4635 15.8838C47.8335 17.0481 46.9162 18.6263 46.9121 20.2726L47.4375 20.2786C47.5077 18.8176 48.381 17.4265 49.8864 16.3894C51.4573 15.3072 53.5879 14.6993 55.8095 14.6993C58.0311 14.6993 60.1618 15.3072 61.7327 16.3894C63.3036 17.4716 64.1861 18.9394 64.1861 20.4698H63.9994L64 20.4698H76.7535C76.69 19.8335 76.302 19.2285 75.6495 18.7571C74.9336 18.2399 73.9519 17.9214 72.8997 17.8649C71.8475 17.8084 70.802 18.0182 69.9713 18.4524C69.1406 18.8866 68.5855 19.5134 68.4167 20.2081L68.2808 20.1934C68.2811 20.2235 68.2813 20.2536 68.2813 20.2837H66.2013C66.2013 18.0558 65.0869 15.9192 63.1031 14.3438C61.1194 12.7685 58.4288 11.8835 55.6233 11.8835C52.8179 11.8835 50.1273 12.7685 48.1436 14.3438C46.1695 15.9115 45.0562 18.0349 45.0454 20.251ZM77.5809 20.4698H77.9697C77.9007 19.5474 77.3207 18.6722 76.3364 18.016C75.2862 17.3159 73.8618 16.9225 72.3766 16.9225C70.8913 16.9225 69.4669 17.3159 68.4167 18.016C68.239 18.1345 68.1061 18.1898 68.0077 18.2049C68.079 18.4725 68.1366 18.743 68.1802 19.0156C68.5019 18.6336 68.9356 18.2941 69.4617 18.0191C70.4558 17.4995 71.7069 17.2485 72.966 17.3161C74.2251 17.3837 75.3998 17.7648 76.2564 18.3837C77.0497 18.9569 77.5163 19.695 77.5809 20.4698ZM62.8096 20.4561C62.8044 19.1821 62.0675 17.961 60.7594 17.0599C59.4466 16.1555 57.6661 15.6475 55.8095 15.6475C53.953 15.6475 52.1724 16.1555 50.8597 17.0599C49.607 17.9229 48.8781 19.0792 48.814 20.2945L48.9438 20.296C49.0714 19.2429 49.7559 18.2495 50.8848 17.4969C52.1415 16.6591 53.846 16.1884 55.6233 16.1884C57.4006 16.1884 59.1051 16.6591 60.3619 17.4969C61.5457 18.2862 62.2409 19.3403 62.3175 20.4504L62.8096 20.4561ZM61.2139 20.4377C61.1339 19.5271 60.556 18.6645 59.5832 18.016C58.533 17.3159 57.1086 16.9225 55.6233 16.9225C54.1381 16.9225 52.7137 17.3159 51.6634 18.016C50.7367 18.6339 50.1683 19.446 50.0475 20.3088L50.8092 20.3176C50.9255 19.5532 51.4334 18.8348 52.2556 18.2867C53.1981 17.6583 54.4765 17.3053 55.8095 17.3053C57.1425 17.3053 58.4208 17.6583 59.3634 18.2867C60.2269 18.8623 60.7437 19.6259 60.8243 20.4332L61.2139 20.4377ZM59.9951 20.4236C59.913 19.7661 59.4845 19.1461 58.7794 18.676C57.9917 18.1509 56.9234 17.8559 55.8095 17.8559C54.6956 17.8559 53.6272 18.1509 52.8396 18.676C52.169 19.123 51.7487 19.7056 51.6384 20.3271L59.9951 20.4236ZM69.228 10.3889C69.2946 10.4508 69.3531 10.5137 69.4032 10.5776C69.227 10.6199 69.0526 10.6658 68.8801 10.7153C68.6487 10.5035 68.3453 10.3097 67.9807 10.1414C67.5313 9.93398 66.9977 9.76945 66.4105 9.65719C65.8234 9.54493 65.194 9.48715 64.5584 9.48715C63.9229 9.48715 63.2935 9.54493 62.7063 9.65719C62.1191 9.76945 61.5856 9.93398 61.1362 10.1414C60.6867 10.3488 60.3302 10.5951 60.087 10.8661L60.079 10.8751C59.8162 10.7966 59.5501 10.725 59.281 10.6605C59.3426 10.5682 59.4212 10.4774 59.5165 10.3889C59.7806 10.1436 60.1678 9.92079 60.6558 9.73308C61.1439 9.54537 61.7233 9.39647 62.3609 9.29488C62.9986 9.1933 63.682 9.14101 64.3722 9.14101C65.0624 9.14101 65.7459 9.1933 66.3836 9.29488C67.0212 9.39647 67.6006 9.54537 68.0887 9.73308C68.5767 9.92079 68.9639 10.1436 69.228 10.3889ZM67.036 10.5774C67.3528 10.7236 67.6058 10.8964 67.7815 11.0865C67.4047 11.2334 67.0368 11.3974 66.6772 11.5771C66.5799 11.4631 66.4692 11.3564 66.3466 11.2583C66.0874 11.0509 65.7796 10.8863 65.4408 10.7741C65.102 10.6618 64.7389 10.604 64.3723 10.604C64.0056 10.604 63.6425 10.6618 63.3037 10.7741C62.965 10.8863 62.6572 11.0509 62.3979 11.2583C62.2613 11.3676 62.1396 11.4876 62.0344 11.6164C61.7617 11.4892 61.4834 11.3703 61.2 11.2598C61.2344 11.2064 61.2749 11.1537 61.3213 11.1021C61.4974 10.9058 61.7554 10.7276 62.0808 10.5774C62.4062 10.4272 62.7924 10.3081 63.2176 10.2268C63.6427 10.1456 64.0983 10.1037 64.5584 10.1037C65.0186 10.1037 65.4742 10.1456 65.8993 10.2268C66.3244 10.3081 66.7107 10.4272 67.036 10.5774ZM65.8017 11.6943C65.8881 11.7635 65.9664 11.8386 66.0356 11.9188C65.458 12.2455 64.9018 12.6125 64.3641 13.0131C63.8415 12.6169 63.2806 12.2595 62.6883 11.9431C62.7625 11.8538 62.8477 11.7704 62.9429 11.6943C63.1306 11.5441 63.3534 11.425 63.5987 11.3437C63.8439 11.2625 64.1068 11.2206 64.3723 11.2206C64.6377 11.2206 64.9006 11.2625 65.1458 11.3437C65.3911 11.425 65.6139 11.5441 65.8017 11.6943ZM57.5034 10.2586C57.5794 10.0233 57.7329 9.79266 57.9608 9.5726C58.2994 9.24559 58.7957 8.94846 59.4214 8.69818C60.0471 8.4479 60.79 8.24937 61.6075 8.11392C62.425 7.97847 63.3012 7.90875 64.1861 7.90875C65.071 7.90875 65.9472 7.97847 66.7647 8.11392C67.5822 8.24937 68.325 8.4479 68.9507 8.69818C69.5764 8.94846 70.0728 9.24559 70.4114 9.5726C70.4443 9.60434 70.4756 9.63631 70.5054 9.66849C70.2198 9.49509 69.8848 9.33391 69.5056 9.18809C68.8315 8.92881 68.0312 8.72314 67.1504 8.58282C66.2696 8.4425 65.3256 8.37027 64.3722 8.37027C63.4189 8.37027 62.4749 8.4425 61.5941 8.58282C60.7133 8.72314 59.913 8.92881 59.2388 9.18809C58.5647 9.44737 58.03 9.75518 57.6651 10.0939C57.6067 10.1482 57.5528 10.2031 57.5034 10.2586Z" fill="#D29F7A"/>
</svg>
